<?xml version="1.0" standalone="no"?>
<!DOCTYPE svg PUBLIC "-//W3C//DTD SVG 20010904//EN"
 "http://www.w3.org/TR/2001/REC-SVG-20010904/DTD/svg10.dtd">
<svg version="1.0" xmlns="http://www.w3.org/2000/svg"
 viewBox="0 0 2600.000000 2600.000000"
 preserveAspectRatio="xMidYMid meet">
<metadata>
Created by potrace 1.15, written by Peter Selinger 2001-2017
</metadata>
<g transform="translate(0.000000,2600.000000) scale(0.100000,-0.100000)" stroke="none">
<path fill="#006194" d="M11500 22669 c-2722 -78 -4952 -530 -5545 -1124 -92 -91 -137 -168
-156 -265 -7 -36 -38 -157 -70 -270 -143 -509 -377 -1430 -363 -1430 2 0 133
-36 291 -79 384 -106 884 -233 890 -227 3 2 18 132 34 288 42 404 94 852 135
1152 19 142 33 260 32 261 -2 1 -37 17 -78 35 -123 53 -248 120 -313 168 l-61
45 49 44 c63 56 322 185 505 252 777 284 2114 516 3540 615 606 42 964 56
1675 63 1060 10 1979 -28 2920 -122 1553 -156 2871 -470 3322 -791 34 -25 63
-49 63 -54 0 -28 -163 -129 -332 -206 -79 -35 -108 -53 -108 -66 0 -10 9 -82
20 -161 38 -274 99 -785 134 -1127 45 -430 46 -440 55 -440 25 0 495 128 791
215 413 123 405 120 402 146 -6 47 -212 868 -276 1099 -120 440 -151 540 -163
540 -8 0 -13 12 -13 28 0 86 -81 227 -182 316 -270 239 -789 453 -1538 635
-1053 256 -2456 416 -4035 461 -393 11 -1224 11 -1625 -1z"/>
<path fill="#009169" d="M7145 20816 c-32 -146 -198 -1627 -183 -1641 17 -17 965 -206 1428
-284 263 -45 747 -121 769 -121 4 0 11 156 15 348 8 404 23 939 32 1165 l7
157 -29 0 c-53 0 -644 89 -896 134 -389 71 -795 163 -1056 240 l-82 24 -5 -22z"/>
<path fill="#ce253c" d="M17460 20818 c-484 -140 -1238 -288 -1858 -365 l-144 -18 6 -115 c14
-243 26 -673 33 -1123 3 -257 9 -469 12 -471 9 -6 568 77 866 128 304 52 813
153 1135 224 l215 49 -3 29 c-42 494 -165 1560 -190 1655 l-7 26 -65 -19z"/>
<path fill="#E9DCC9" d="M9626 20359 c-7 -34 -45 -1348 -46 -1580 l0 -66 193 -21 c697 -80
1445 -135 1997 -147 140 -3 279 -8 308 -10 l52 -5 0 863 0 864 -412 6 c-682
11 -1154 37 -2020 114 -65 6 -67 5 -72 -18z"/>
<path fill="#E9DCC9" d="M14830 20365 c-495 -52 -1252 -93 -1905 -104 l-380 -6 -3 -864 -2
-864 367 7 c722 13 1260 44 1933 112 134 13 248 28 251 32 11 10 -22 1431 -37
1625 l-6 77 -47 -1 c-25 -1 -102 -7 -171 -14z"/>
<path fill="#009169" d="M5147 18521 c-675 -3579 -647 -7416 84 -11441 32 -175 131 -694 133
-697 4 -5 360 -113 586 -178 302 -86 708 -190 716 -183 3 3 -11 201 -30 439
-219 2683 -330 5788 -297 8261 19 1386 45 2126 118 3276 14 232 24 425 21 428
-3 3 -146 41 -318 85 -279 71 -540 140 -861 228 l-106 29 -46 -247z"/>
<path fill="#ce253c" d="M19470 18740 c-230 -72 -787 -229 -1050 -295 -80 -20 -163 -41 -184
-46 l-39 -11 7 -101 c130 -1977 167 -3760 126 -6052 -36 -1960 -157 -4339
-306 -6004 -8 -95 -13 -175 -11 -177 14 -14 1300 326 1323 350 23 23 222 1131
319 1776 143 955 251 1938 309 2825 9 127 18 266 21 310 52 787 68 2116 35
2955 -58 1479 -214 2908 -461 4215 -46 248 -50 265 -57 264 -4 0 -18 -4 -32
-9z"/>
<path fill="#009169" d="M6886 18288 c-13 -117 -59 -917 -81 -1408 -120 -2733 -66 -6075 150
-9220 45 -653 132 -1739 140 -1748 5 -6 566 -123 815 -171 474 -90 1443 -241
1458 -227 2 2 -6 181 -17 398 -136 2549 -202 5828 -201 9953 l1 2070 -318 46
c-533 78 -1118 182 -1643 293 -146 31 -273 59 -282 62 -13 4 -18 -5 -22 -48z"/>
<path fill="#ce253c" d="M17545 18239 c-506 -113 -1165 -231 -1721 -308 -160 -23 -293 -41
-295 -41 -2 0 -4 -1027 -4 -2282 -1 -2114 -8 -3058 -35 -4573 -37 -2033 -89
-3684 -160 -5084 -12 -216 -19 -395 -18 -397 5 -4 509 70 823 121 492 80 1429
264 1446 282 3 5 12 73 18 153 7 80 23 279 36 443 135 1644 221 3292 277 5327
18 621 18 3327 0 3890 -24 798 -52 1449 -87 2025 -8 132 -17 283 -20 335 -8
127 -14 160 -28 159 -7 0 -111 -23 -232 -50z"/>
<path fill="#E9DCC9" d="M9567 17228 c-23 -2200 14 -5847 83 -8333 38 -1346 124 -3416 142
-3430 2 -1 138 -14 303 -29 569 -50 1098 -78 1763 -91 l272 -5 0 6183 0 6184
-298 6 c-637 15 -1464 74 -2122 152 -69 8 -128 15 -131 15 -3 0 -9 -294 -12
-652z"/>
<path fill="#E9DCC9" d="M15005 17829 c-516 -61 -1349 -110 -2117 -125 l-348 -7 0 -6175 0
-6175 263 7 c551 14 1229 58 1786 116 157 17 288 30 291 30 23 0 102 1888 145
3435 60 2178 79 3727 79 6530 1 2099 -1 2370 -14 2371 -8 1 -46 -2 -85 -7z"/>
<path fill="#ce253c" d="M18885 5413 c-137 -35 -407 -102 -599 -149 -192 -46 -350 -85 -352
-87 -2 -2 -20 -158 -40 -348 -20 -189 -60 -531 -89 -759 -28 -228 -50 -417
-48 -420 6 -6 199 60 338 117 463 188 754 424 782 634 4 24 12 49 19 54 11 9
96 348 199 800 25 110 48 206 50 213 6 16 26 20 -260 -55z"/>
<path fill="#009169" d="M5565 5428 c3 -13 30 -131 59 -263 30 -132 78 -334 106 -450 28 -115
58 -245 65 -287 21 -117 56 -179 160 -284 103 -103 214 -181 390 -270 176 -89
557 -235 573 -220 3 4 -2 62 -11 129 -29 209 -87 698 -122 1031 -19 175 -36
319 -37 320 -2 1 -97 26 -213 54 -288 70 -733 191 -958 258 -14 5 -17 1 -12
-18z"/>
<path fill="#ce253c" d="M17220 5030 c-473 -98 -1108 -205 -1663 -280 -160 -22 -294 -43 -297
-47 -4 -5 -17 -145 -29 -313 -26 -359 -64 -774 -95 -1047 -12 -107 -19 -196
-16 -197 3 -2 97 7 210 20 583 67 1092 149 1575 254 321 69 404 92 409 109 8
23 71 500 101 756 24 211 85 772 85 788 0 12 -37 7 -280 -43z"/>
<path fill="#009169" d="M7180 5016 c0 -66 139 -1239 170 -1430 5 -33 13 -63 17 -67 24 -22
718 -168 1108 -233 359 -60 1071 -153 1082 -142 2 2 -7 107 -21 233 -33 301
-61 600 -90 976 -13 170 -27 311 -30 314 -3 4 -138 23 -298 44 -381 49 -698
96 -1093 165 -272 47 -770 144 -827 160 -14 4 -18 -1 -18 -20z"/>
<path fill="#E9DCC9" d="M14540 4634 c-475 -50 -1047 -87 -1622 -106 l-378 -12 0 -755 0 -754
408 6 c557 10 954 28 1477 68 142 11 261 21 262 23 16 16 143 1364 143 1517 0
39 0 39 -37 38 -21 -1 -135 -12 -253 -25z"/>
<path fill="#E9DCC9" d="M9840 4609 c0 -35 60 -735 80 -939 30 -295 61 -554 69 -562 13 -14
621 -57 1111 -78 129 -6 414 -13 633 -17 l397 -6 0 750 0 750 -61 7 c-34 3
-166 6 -294 6 -403 0 -1001 29 -1575 75 -168 14 -317 27 -332 30 -23 4 -28 1
-28 -16z"/>
</g>
</svg>
